<svg xmlns="http://www.w3.org/2000/svg" xmlns:xlink="http://www.w3.org/1999/xlink" width="384" height="384" viewBox="0 0 384 384"><defs><g id="j" clip-path="url(#e)"><g clip-path="url(#f)"><path fill="#4d8300" d="M165.559 96.934a4.4 4.4 0 0 1-.653 4.644L43.363 242.172c-.804.965-2 1.523-3.254 1.52a4.38 4.38 0 0 1-3.574-1.891 4.36 4.36 0 0 1-.504-4.012l33.54-87.828H5.394a4.331 4.331 0 0 1-3.82-6.379L76.776 2.988a4.27 4.27 0 0 1 3.817-2.3h81.015a4.34 4.34 0 0 1 3.95 2.519 4.33 4.33 0 0 1-.653 4.64L90.098 94.419h71.511c1.692 0 3.23.984 3.95 2.516"/></g></g><g id="g"><path fill-opacity="0" d="M0 0h460.8v460.8H0z"/><path fill="#fff" d="M0 0h460.8v460.8H0z"/></g><g id="a" mask="url(#i)"><use xlink:href="#j" transform="translate(209.4 96.4)"/></g><g id="b"><path fill="#fff" d="M367.213 38.4H92.926a41.145 41.145 0 0 0-41.145 41.145v301.71A41.145 41.145 0 0 0 92.928 422.4h274.285a41.145 41.145 0 0 0 41.145-41.145V79.545A41.145 41.145 0 0 0 367.212 38.4M188.927 175.545h82.285v96h-82.285Zm82.285 219.425h-82.285v-96h82.285Zm-192-219.425h82.286v96H79.213Zm219.43 0h82.285v96h-82.285ZM92.927 65.83h274.285a13.713 13.713 0 0 1 13.715 13.715v68.57H79.213v-68.57c0-3.637 1.445-7.13 4.015-9.7a13.73 13.73 0 0 1 9.7-4.015M79.212 381.255V298.97h82.285v96h-68.57a13.73 13.73 0 0 1-9.7-4.015 13.73 13.73 0 0 1-4.015-9.7m288 13.715h-68.57v-96h82.284v82.285a13.716 13.716 0 0 1-13.715 13.715"/><path fill="#fff" d="M131.627 59.1h190.097q1.868 0 3.73.093a74 74 0 0 1 3.723.273q1.857.182 3.707.457 1.841.275 3.676.637 1.83.363 3.64.82 1.812.452 3.598.993a80 80 0 0 1 3.543 1.172 74 74 0 0 1 3.48 1.343q1.729.715 3.415 1.512a74 74 0 0 1 3.332 1.68q1.652.879 3.25 1.84a75.156 75.156 0 0 1 9.145 6.441q1.445 1.184 2.828 2.437 1.38 1.255 2.703 2.575a76.054 76.054 0 0 1 9.457 11.52 75 75 0 0 1 1.996 3.155 74 74 0 0 1 3.515 6.582 68 68 0 0 1 1.512 3.41q.719 1.725 1.344 3.481a72 72 0 0 1 1.172 3.543q.545 1.786.996 3.598a78 78 0 0 1 1.457 7.32c.184 1.23.332 2.465.457 3.703a79 79 0 0 1 .273 3.723 79 79 0 0 1 .09 3.73V325.24q0 1.862-.09 3.73a79 79 0 0 1-.273 3.723 79 79 0 0 1-.457 3.703 73 73 0 0 1-.64 3.676 77 77 0 0 1-.817 3.644 71 71 0 0 1-.996 3.594 71 71 0 0 1-1.172 3.547 71 71 0 0 1-1.344 3.48 75.85 75.85 0 0 1-5.027 9.992 78 78 0 0 1-4.145 6.208 76.055 76.055 0 0 1-12.84 13.48 76 76 0 0 1-5.992 4.445 78 78 0 0 1-3.152 1.997 72 72 0 0 1-3.25 1.84 74 74 0 0 1-6.746 3.19 74 74 0 0 1-3.48 1.345 80 80 0 0 1-3.544 1.171q-1.786.54-3.597.993a78 78 0 0 1-3.64.82q-1.836.362-3.677.637a74 74 0 0 1-3.707.457c-1.238.12-2.48.215-3.722.273a74 74 0 0 1-3.73.094H131.626q-1.87 0-3.73-.094a74 74 0 0 1-3.724-.273 77.833 77.833 0 0 1-7.383-1.094 78 78 0 0 1-7.238-1.813 80 80 0 0 1-3.543-1.171 75 75 0 0 1-6.894-2.856 76.015 76.015 0 0 1-15.727-9.96 73 73 0 0 1-2.828-2.438 76.5 76.5 0 0 1-10.012-11.043 77.845 77.845 0 0 1-4.145-6.207 75.85 75.85 0 0 1-5.027-9.992 75 75 0 0 1-1.347-3.481 75 75 0 0 1-1.168-3.547 75 75 0 0 1-2.45-10.914 74 74 0 0 1-.456-3.703 74 74 0 0 1-.367-7.453V135.138a74.193 74.193 0 0 1 .367-7.453q.18-1.857.457-3.703.271-1.846.636-3.676c.243-1.222.516-2.433.817-3.644a77 77 0 0 1 2.164-7.14 74 74 0 0 1 1.348-3.481c.472-1.149.976-2.29 1.511-3.41a73.69 73.69 0 0 1 3.516-6.582 75.3 75.3 0 0 1 8.879-11.973 76.466 76.466 0 0 1 5.277-5.277 76.135 76.135 0 0 1 8.82-6.883 76.014 76.014 0 0 1 20.172-9.543 77 77 0 0 1 3.598-.993 73 73 0 0 1 3.64-.82 78 78 0 0 1 7.383-1.094 74 74 0 0 1 3.723-.273 74 74 0 0 1 3.73-.094"/><path fill="#fff" d="M355.166 55.72h-249.54a37.43 37.43 0 0 0-26.468 10.961A37.43 37.43 0 0 0 68.197 93.15v274.496a37.42 37.42 0 0 0 10.96 26.465 37.44 37.44 0 0 0 26.47 10.965h249.539c9.93 0 19.449-3.946 26.468-10.965a37.43 37.43 0 0 0 10.965-26.465V93.15a37.427 37.427 0 0 0-37.434-37.43M192.967 180.49h74.864v87.34h-74.864Zm74.864 199.633h-74.864v-87.34h74.864ZM93.15 180.49h74.863v87.34H93.15Zm199.633 0h74.863v87.34h-74.863ZM105.627 80.673h249.539a12.5 12.5 0 0 1 8.824 3.653 12.48 12.48 0 0 1 3.656 8.824v62.387H93.15V93.15c0-3.309 1.316-6.484 3.652-8.824a12.5 12.5 0 0 1 8.825-3.653M93.15 367.646v-74.863h74.863v87.34h-62.386a12.5 12.5 0 0 1-8.825-3.657 12.49 12.49 0 0 1-3.652-8.82m262.016 12.477h-62.383v-87.34h74.863v74.863c0 3.309-1.316 6.48-3.656 8.82a12.48 12.48 0 0 1-8.824 3.657"/><path fill="#4d8300" d="M360.869 47.736H99.923a39.144 39.144 0 0 0-39.14 39.14v287.04a39.146 39.146 0 0 0 39.14 39.144H360.87a39.146 39.146 0 0 0 39.144-39.144V86.876a39.144 39.144 0 0 0-39.144-39.14M191.255 178.209h78.286v91.332h-78.286Zm78.286 208.757h-78.286v-91.332h78.286ZM86.877 178.21h78.285v91.332H86.877Zm208.757 0h78.282v91.332h-78.282ZM99.924 73.829h260.945c3.46 0 6.781 1.376 9.226 3.825a13.03 13.03 0 0 1 3.82 9.223v65.238H86.878V86.877c0-3.457 1.375-6.778 3.824-9.223a13.04 13.04 0 0 1 9.222-3.824M86.877 373.916v-78.282h78.285v91.332H99.923a13.04 13.04 0 0 1-9.222-3.824 13.04 13.04 0 0 1-3.824-9.226m273.992 13.05h-65.235v-91.332h78.282v78.282c0 3.46-1.371 6.78-3.82 9.226a13.04 13.04 0 0 1-9.227 3.824"/><path fill="#fff" d="M116.798 272.896H96.146l-9.726 37.379-9.723-37.379H38.4v5.234l28.086 94.567V422.4h37.941v-49.703l18.946-63.793h15.597V422.4h37.938V308.904h22.168v-36.008Zm8.368 8.363h65.547v19.282H168.54v115.668h-21.207V300.54h-22.168Zm-38.551 61.5 16-61.5h20.242L96.06 371.482v44.727H74.853v-44.727l-26.797-90.223h22.172l16 61.5Zm39.242-42.218h7.676ZM74.853 416.209h8.367Zm0 0"/><g fill="#04060c" transform="translate(38.4 38.4)"><use xlink:href="#k" x="8.886" y="377.807"/><use xlink:href="#l" x="85.224" y="377.807"/></g><path fill="#aad816" d="M382.572 195.568a6.07 6.07 0 0 1-.899 6.406L214.045 395.873a5.82 5.82 0 0 1-4.489 2.097 6.05 6.05 0 0 1-4.93-2.605 6.05 6.05 0 0 1-.695-5.535l46.262-121.13h-88.512a5.98 5.98 0 0 1-5.133-2.902 5.98 5.98 0 0 1-.136-5.894L260.127 66.002a5.89 5.89 0 0 1 5.265-3.172h111.735a5.98 5.98 0 0 1 5.449 3.476 5.98 5.98 0 0 1-.903 6.399L278.498 192.099h98.629a6.01 6.01 0 0 1 5.445 3.469"/></g><g id="c" filter="url(#m)" mask="url(#n)"><path d="M0 0h460.8v460.8H0z"/></g><g id="d" mask="url(#o)"><use xlink:href="#b"/></g><filter id="h" width="100%" height="100%" x="0%" y="0%"><feColorMatrix color-interpolation-filters="sRGB" values="0 0 0 0 1 0 0 0 0 1 0 0 0 0 1 0 0 0 -1 1"/></filter><filter id="m" width="100%" height="100%" x="0%" y="0%"><feImage xlink:href="#a" width="460.8" height="460.8" x="0" y="0" result="source"/><feImage xlink:href="#b" width="460.8" height="460.8" x="0" y="0" result="destination"/><feBlend color-interpolation-filters="sRGB" in="source" in2="destination" mode="multiply"/></filter><filter id="p" width="100%" height="100%" x="0%" y="0%"><feImage xlink:href="#c" width="460.8" height="460.8" x="0" y="0" result="source"/><feImage xlink:href="#d" width="460.8" height="460.8" x="0" y="0" result="destination"/><feComposite color-interpolation-filters="sRGB" in="source" in2="destination" k2="1" k3="1" operator="arithmetic"/></filter><mask id="n"><use xlink:href="#g"/></mask><mask id="o"><use xlink:href="#g" filter="url(#h)"/></mask><mask id="i"><path fill="#fff" d="M0 0h460.8v460.8H0z"/></mask><clipPath id="f"><path d="M1 .676h165v243.02H1Zm0 0"/></clipPath><clipPath id="e"><path d="M0 0h167v244H0z"/></clipPath><path id="k" d="M27.563 0h21.203v-44.719l26.797-90.218H55.328l-16 61.5h-.39l-16-61.5H.765L27.563-44.72Zm0 0"/><path id="l" d="M1.547-115.656h22.156V0h21.219v-115.656h22.156v-19.281H1.547Zm0 0"/></defs><g filter="url(#p)" transform="translate(-38.4 -38.4)"><path d="M0 0h460.8v460.8H0z"/></g></svg>